Coordinates
version=1
nRows=19
nColumns=24
inDegrees=yes

Units are S.I. units (second, meters, Newtons, ...)
Angles are in degrees.

endheader
time	pelvis_tilt	pelvis_list	pelvis_rotation	pelvis_tx	pelvis_ty	pelvis_tz	hip_flexion_r	hip_adduction_r	hip_rotation_r	knee_angle_r	ankle_angle_r	subtalar_angle_r	mtp_angle_r	hip_flexion_l	hip_adduction_l	hip_rotation_l	knee_angle_l	ankle_angle_l	subtalar_angle_l	mtp_angle_l	lumbar_extension	lumbar_bending	lumbar_rotation
      1.20450000	      0.05510894	     -7.64155925	     -7.03855251	      0.08018220	      0.96764780	      0.35980804	    -21.81692239	      9.98199974	      6.66071180	     -6.65904827	      7.64094752	     -7.33719934	      4.98896127	     25.22236862	     -8.35200999	     -7.82889250	      1.96758491	      2.91087758	     -1.84001285	      5.19820795	     -5.08723795	     10.96364512	     11.81887765
      1.20866667	     -0.03922445	     -7.50309034	     -7.11976072	      0.08636658	      0.96689834	      0.35966838	    -21.91571497	      9.77258420	      6.64450836	     -6.92548605	      7.43717844	     -7.39501936	      5.11297158	     25.31672033	     -8.22574669	     -7.58874501	      1.54950615	      2.61866497	     -2.40095667	      5.22628370	     -4.91991317	     10.77214576	     11.87597218
      1.21283333	     -0.14135846	     -7.35555094	     -7.18694865	      0.09259438	      0.96617999	      0.35949544	    -22.00320862	      9.55950435	      6.62485706	     -7.18995945	      7.22271839	     -7.46453349	      5.26201362	     25.43254519	     -8.08331030	     -7.33222612	      1.07624171	      2.26109132	     -3.03097491	      5.26455766	     -4.74726342	     10.59924983	     11.93697296
      1.21700000	     -0.22149842	     -7.17943105	     -7.25113030	      0.09886782	      0.96553166	      0.35931216	    -22.09121664	      9.31405277	      6.58120299	     -7.49137422	      7.02964482	     -7.53233508	      5.58763482	     25.51023813	     -7.90543964	     -7.04502140	      0.60131489	      1.86797996	     -3.75060155	      5.35958319	     -4.58629034	     10.36969386	     11.96523753
      1.22116667	     -0.34816964	     -7.02289227	     -7.32036223	      0.10514295	      0.96487350	      0.35912016	    -22.10881966	      9.09512042	      6.54036648	     -7.82466882	      6.72589995	     -7.60959737	      5.83332854	     25.66196647	     -7.75328022	     -6.77806853	      0.05637945	      1.43501623	     -4.42250360	      5.43260621	     -4.37915182	     10.18350088	     12.02784033
      1.22533333	     -0.46219674	     -6.83960973	     -7.36695837	      0.11147616	      0.96426993	      0.35890488	    -22.13282635	      8.85545866	      6.48169015	     -8.16019699	      6.42408628	     -7.69483983	      6.10350136	     25.79878175	     -7.56089207	     -6.48937019	     -0.49751537	      0.93741716	     -5.14002500	      5.51380806	     -4.17048951	      9.95832816	     12.06958635
      1.22950000	     -0.59311725	     -6.64948510	     -7.39048020	      0.11786065	      0.96368475	      0.35865400	    -22.13292267	      8.61956193	      6.41219217	     -8.49484789	      6.08059575	     -7.77569958	      6.33011097	     25.97000211	     -7.35262801	     -6.20798863	     -1.09067355	      0.39454076	     -5.79913966	      5.58083822	     -3.91978404	      9.72642485	     12.11428822
      1.23366667	     -0.70636931	     -6.44683239	     -7.43134827	      0.12423570	      0.96318071	      0.35839385	    -22.10280228	      8.36091643	      6.32056399	     -8.91888294	      5.74857759	     -7.86488119	      6.68206388	     26.10505205	     -7.12866809	     -5.90564916	     -1.66770477	     -0.17840452	     -6.60827498	      5.68778017	     -3.71602910	      9.48141161	     12.13106482
      1.23783333	     -0.85031610	     -6.23674114	     -7.43224766	      0.13069078	      0.96267488	      0.35810871	    -22.05448692	      8.11649832	      6.23596858	     -9.29877395	      5.33651482	     -7.95282508	      6.96516490	     26.30196473	     -6.88680585	     -5.62809089	     -2.30084621	     -0.78871982	     -7.26539481	      5.77023140	     -3.43301566	      9.22277833	     12.16730084
      1.24200000	     -0.98457195	     -6.01630114	     -7.43484508	      0.13714360	      0.96223671	      0.35779492	    -21.97461142	      7.85786971	      6.12567928	     -9.75022397	      4.91954492	     -8.04839023	      7.29468697	     26.48246741	     -6.62821490	     -5.34200861	     -2.92891515	     -1.42434751	     -7.99773030	      5.86526056	     -3.17563987	      8.95580062	     12.18065130
      1.24616667	     -1.09765191	     -5.76174558	     -7.43616814	      0.14363526	      0.96186606	      0.35743377	    -21.86064847	      7.54696502	      5.87740038	    -10.27823174	      4.42695441	     -8.02989045	     12.85701770	     26.63753880	     -6.32937706	     -5.11132747	     -3.55727303	     -2.06110679	     -8.65794378	      7.48369176	     -2.94543823	      8.66216345	     12.17309035
      1.25033333	     -1.23517669	     -5.53850309	     -7.41966816	      0.15011665	      0.96153567	      0.35710290	    -21.74250396	      7.30070808	      5.81697957	    -10.77595434	      3.90872032	     -8.27012382	     12.91680955	     26.84190917	     -6.05976888	     -4.85642586	     -4.23716518	     -2.69229253	     -9.31429056	      7.45492608	     -2.69003297	      8.38687105	     12.18561398
      1.25450000	     -1.38282070	     -5.29356919	     -7.38009721	      0.15665309	      0.96123463	      0.35673128	    -21.58828962	      7.03744175	      5.69840066	    -11.30291168	      3.36703317	     -8.38529483	     13.00611697	     27.06175348	     -5.75752714	     -4.61071061	     -4.92911839	     -3.31450869	     -9.90399038	      7.44217105	     -2.40014889	      8.09212787	     12.19020673
      1.25866667	     -1.51784707	     -5.04247562	     -7.33387412	      0.16319385	      0.96100291	      0.35633155	    -21.40896952	      6.76684300	      5.55587859	    -11.89342687	      2.80358641	     -8.49026596	     13.12971255	     27.26843067	     -5.44352078	     -4.37986859	     -5.62603306	     -3.91321042	    -10.46959745	      7.43891724	     -2.12070111	      7.78675014	     12.18314742
      1.26283333	     -1.64801110	     -4.78985641	     -7.29203567	      0.16971004	      0.96083462	      0.35589822	    -21.17888975	      6.48884544	      5.38492641	    -12.57863019	      2.21753972	     -8.56648419	     13.35979602	     27.45808279	     -5.12214878	     -4.12500881	     -6.30742363	     -4.48812511	    -11.08041815	      7.44861873	     -1.87106265	      7.49511243	     12.15443327
      1.26700000	     -1.77677626	     -4.52030135	     -7.20556172	      0.17630439	      0.96070765	      0.35544414	    -20.96361889	      6.21258517	      5.22764595	    -13.21728931	      1.54705801	     -8.65048738	     13.54555724	     27.67660754	     -4.77462068	     -3.93528198	     -7.05087416	     -5.00317725	    -11.48995288	      7.45838309	     -1.58414015	      7.15708643	     12.14513878
      1.27116667	     -1.90606082	     -4.26240523	     -7.14345397	      0.18282849	      0.96064267	      0.35495989	    -20.66744360	      5.93396494	      5.03954365	    -14.00093430	      0.86384179	     -8.70179301	     13.87218359	     27.87160704	     -4.43817345	     -3.70058624	     -7.75809139	     -5.49270683	    -12.02146664	      7.48140038	     -1.33378018	      6.86603920	     12.10661765
      1.27533333	     -2.02382786	     -3.99080697	     -7.05467374	      0.18939020	      0.96063023	      0.35444751	    -20.36974841	      5.64780365	      4.84282386	    -14.79097252	      0.11386899	     -8.73999081	     14.28081907	     28.06536260	     -4.08036810	     -3.50498584	     -8.49253864	     -5.91969506	    -12.43287675	      7.51000807	     -1.07726170	      6.54393147	     12.07362701
      1.27950000	     -2.12561686	     -3.71507368	     -6.93483789	      0.19598214	      0.96067793	      0.35392526	    -20.07919631	      5.36953571	      4.65106028	    -15.58475048	     -0.68896978	     -8.79823478	     14.63164651	     28.25926328	     -3.71124636	     -3.36004298	     -9.26673612	     -6.28440598	    -12.72055679	      7.53144801	     -0.81949197	      6.19242997	     12.05008104
